<svg viewBox="0 0 198.4 85" version="1.1" xmlns="http://www.w3.org/2000/svg" id="Calque_1">
  
  <defs>
    <style>
      .st0 {
        fill: #fff;
      }
    </style>
  </defs>
  <rect height="85" width="198.4"></rect>
  <g>
    <path d="M28.5,32.1h6.9c5.8,0,6.9,4,6.9,10.1s-1.6,10.7-7.1,10.7h-6.6v-20.8ZM32.7,49.8h1.9c2.9,0,3.5-1.8,3.5-7.5s-.4-7.1-3.6-7.1h-1.8v14.6Z" class="st0"></path>
    <path d="M48.1,32.1h5.2l5.5,20.8h-4.4l-1-4.4h-5.5l-1,4.4h-4.4l5.5-20.8ZM48.6,45.1h4.1l-2-9.4h0l-2,9.4Z" class="st0"></path>
    <path d="M60.3,32.1h6.2l3,14.7h0l3-14.7h6.2v20.8h-3.8v-16.6h0l-3.7,16.6h-3.3l-3.7-16.6h0v16.6h-3.8v-20.8Z" class="st0"></path>
    <path d="M85.2,46.4v.6c0,2,.6,3.2,2.8,3.2s2.5-.8,2.5-2.6-1-2.6-3.7-3.6c-3.7-1.3-5.5-2.8-5.5-6.3s2.5-6.1,6.4-6.1,6.4,1.6,6.4,5.6v.6h-4c0-2-.7-3.1-2.3-3.1s-2.4,1.2-2.4,2.4.4,2.1,2.2,2.8l3.2,1.4c3.1,1.4,4,3,4,5.5,0,4.4-2.7,6.4-7.2,6.4s-6.6-2.2-6.6-6.1v-.8h4.2Z" class="st0"></path>
    <path d="M103.6,31.7c6.3,0,7.1,4.5,7.1,10.8s-.8,10.8-7.1,10.8-7.1-4.5-7.1-10.8.8-10.8,7.1-10.8ZM103.6,50.2c2.5,0,2.9-2.1,2.9-7.7s-.4-7.7-2.9-7.7-2.9,2.2-2.9,7.7.4,7.7,2.9,7.7Z" class="st0"></path>
    <path d="M116.5,48.4v4.5h-3.8v-4.5h3.8Z" class="st0"></path>
    <path d="M128.4,39.1c0-3-.6-4.3-2.5-4.3s-2.6,2.1-2.6,8,.9,7.4,2.7,7.4,2.6-.8,2.6-5.3h4.2c0,4.5-1.1,8.4-6.6,8.4s-7.1-4.5-7.1-10.8.8-10.8,7.1-10.8,6.4,4.4,6.4,7.4h-4.2Z" class="st0"></path>
    <path d="M141.8,31.7c6.3,0,7.1,4.5,7.1,10.8s-.8,10.8-7.1,10.8-7.1-4.5-7.1-10.8.8-10.8,7.1-10.8ZM141.8,50.2c2.5,0,2.9-2.1,2.9-7.7s-.4-7.7-2.9-7.7-2.9,2.2-2.9,7.7.4,7.7,2.9,7.7Z" class="st0"></path>
    <path d="M151.5,32.1h6.2l3,14.7h0l3-14.7h6.2v20.8h-3.8v-16.6h0l-3.7,16.6h-3.3l-3.7-16.6h0v16.6h-3.8v-20.8Z" class="st0"></path>
  </g>
</svg>